<mxfile host="app.diagrams.net" modified="2023-08-29T20:13:31.625Z" agent="Mozilla/5.0 (Windows NT 10.0; Win64; x64) AppleWebKit/537.36 (KHTML, like Gecko) Chrome/116.0.0.0 Safari/537.36" etag="IxPXhv7Ify_6h5B4zrIv" version="21.7.0" type="device">
  <diagram name="Page-1" id="edf60f1a-56cd-e834-aa8a-f176f3a09ee4">
    <mxGraphModel dx="472" dy="780" grid="1" gridSize="10" guides="1" tooltips="1" connect="1" arrows="1" fold="1" page="1" pageScale="1" pageWidth="1100" pageHeight="850" background="none" math="0" shadow="0">
      <root>
        <mxCell id="0" />
        <mxCell id="1" parent="0" />
        <mxCell id="60e70716793133e9-27" value="Create work&amp;nbsp;&lt;div&gt;order backorder&lt;/div&gt;" style="whiteSpace=wrap;html=1;rounded=0;shadow=1;labelBackgroundColor=none;strokeWidth=1;fontFamily=Verdana;fontSize=8;align=center;" parent="1" vertex="1">
          <mxGeometry x="620" y="1120" width="120" height="40" as="geometry" />
        </mxCell>
        <mxCell id="mwwmZUguYG0QkLxC43ju-6" style="edgeStyle=orthogonalEdgeStyle;rounded=0;orthogonalLoop=1;jettySize=auto;html=1;entryX=0.5;entryY=0;entryDx=0;entryDy=0;entryPerimeter=0;" edge="1" parent="1" source="mwwmZUguYG0QkLxC43ju-2" target="mwwmZUguYG0QkLxC43ju-3">
          <mxGeometry relative="1" as="geometry" />
        </mxCell>
        <mxCell id="mwwmZUguYG0QkLxC43ju-2" value="Início" style="rounded=1;whiteSpace=wrap;html=1;arcSize=50;" vertex="1" parent="1">
          <mxGeometry x="238.05" y="170" width="93.89" height="50" as="geometry" />
        </mxCell>
        <mxCell id="mwwmZUguYG0QkLxC43ju-7" style="edgeStyle=orthogonalEdgeStyle;rounded=0;orthogonalLoop=1;jettySize=auto;html=1;" edge="1" parent="1" source="mwwmZUguYG0QkLxC43ju-3" target="mwwmZUguYG0QkLxC43ju-4">
          <mxGeometry relative="1" as="geometry" />
        </mxCell>
        <mxCell id="mwwmZUguYG0QkLxC43ju-3" value="Solicitar informações de &quot;nome&quot;, e data de nascimento no formato &quot;xx/xx/xxxx&quot;" style="shape=card;whiteSpace=wrap;html=1;size=20;" vertex="1" parent="1">
          <mxGeometry x="220" y="270" width="130" height="100" as="geometry" />
        </mxCell>
        <mxCell id="mwwmZUguYG0QkLxC43ju-8" style="edgeStyle=orthogonalEdgeStyle;rounded=0;orthogonalLoop=1;jettySize=auto;html=1;" edge="1" parent="1" source="mwwmZUguYG0QkLxC43ju-4" target="mwwmZUguYG0QkLxC43ju-5">
          <mxGeometry relative="1" as="geometry" />
        </mxCell>
        <mxCell id="mwwmZUguYG0QkLxC43ju-4" value="Processar dados recebidos" style="rounded=0;whiteSpace=wrap;html=1;" vertex="1" parent="1">
          <mxGeometry x="205" y="420" width="160" height="80" as="geometry" />
        </mxCell>
        <mxCell id="mwwmZUguYG0QkLxC43ju-11" style="edgeStyle=orthogonalEdgeStyle;rounded=0;orthogonalLoop=1;jettySize=auto;html=1;" edge="1" parent="1" source="mwwmZUguYG0QkLxC43ju-5" target="mwwmZUguYG0QkLxC43ju-10">
          <mxGeometry relative="1" as="geometry" />
        </mxCell>
        <mxCell id="mwwmZUguYG0QkLxC43ju-5" value="Programa imprime na tela &quot;Seu nome é (nome), e você nasceu em (xx/xx/xxxx)&quot;" style="shape=display;whiteSpace=wrap;html=1;" vertex="1" parent="1">
          <mxGeometry x="160" y="550" width="250" height="110" as="geometry" />
        </mxCell>
        <mxCell id="mwwmZUguYG0QkLxC43ju-10" value="Fim" style="rounded=1;whiteSpace=wrap;html=1;arcSize=50;" vertex="1" parent="1">
          <mxGeometry x="238.05" y="710" width="93.89" height="50" as="geometry" />
        </mxCell>
      </root>
    </mxGraphModel>
  </diagram>
</mxfile>
